<?xml version="1.0" standalone="no"?>
<!DOCTYPE svg PUBLIC "-//W3C//DTD SVG 20010904//EN"
 "http://www.w3.org/TR/2001/REC-SVG-20010904/DTD/svg10.dtd">
<svg version="1.0" xmlns="http://www.w3.org/2000/svg"
 width="400.000000pt" height="400.000000pt" viewBox="0 0 400.000000 400.000000"
 preserveAspectRatio="xMidYMid meet">
<metadata>
Created by potrace 1.14, written by Peter Selinger 2001-2017
</metadata>
<g transform="translate(0.000000,400.000000) scale(0.100000,-0.100000)"
fill="#000000" stroke="none">
<path d="M0 2000 l0 -2000 2000 0 2000 0 0 2000 0 2000 -2000 0 -2000 0 0
-2000z m961 1056 c2 -2 2 -27 1 -55 l-4 -51 -79 0 -79 0 0 -230 0 -230 -60 0
-60 0 0 230 0 230 -80 0 -80 0 0 55 0 55 218 0 c120 0 221 -2 223 -4z m304
-104 l0 -102 123 0 122 0 0 105 0 105 60 0 60 0 -2 -282 -3 -283 -55 0 -55 0
-3 123 -3 122 -119 0 -119 0 -3 -122 -3 -123 -60 0 -60 0 -3 283 -2 283 62 -3
63 -3 0 -103z m925 53 l0 -55 -130 0 -130 0 0 -55 0 -55 120 0 120 0 0 -55 0
-55 -120 0 -120 0 0 -60 0 -60 135 0 135 0 0 -54 c0 -37 -4 -56 -14 -59 -8 -3
-97 -5 -198 -4 l-183 2 -3 283 -2 282 195 0 195 0 0 -55z m1126 23 c63 -33
108 -85 134 -156 39 -105 17 -205 -65 -288 -81 -82 -94 -84 -469 -84 -315 0
-322 1 -371 24 -96 44 -154 127 -162 231 -3 33 0 79 6 102 22 80 116 175 192
193 19 5 180 8 359 7 l325 -2 51 -27z m-2527 -936 c37 -104 68 -178 71 -170 4
7 33 87 65 178 32 91 59 166 60 167 4 8 114 14 150 8 l45 -6 0 -280 0 -279
-65 0 -65 0 -2 212 -3 211 -71 -209 -71 -209 -49 -3 -50 -3 -63 195 c-35 107
-68 201 -72 208 -5 7 -9 -80 -9 -194 l0 -208 -59 0 -58 0 -5 278 c-3 152 -3
281 -1 285 3 4 46 6 96 5 l91 -3 65 -183z m946 154 c95 -44 165 -153 165 -257
0 -65 -38 -148 -90 -199 -178 -174 -470 -46 -470 205 0 117 58 208 164 256 61
28 167 25 231 -5z m444 -158 c37 -98 69 -178 72 -178 3 0 36 81 74 180 l68
180 64 0 c34 0 63 -2 63 -5 0 -3 -27 -71 -61 -152 -33 -82 -84 -205 -112 -275
l-52 -127 -50 -1 -50 0 -99 248 c-55 136 -105 262 -113 280 l-14 33 73 -3 72
-3 65 -177z m661 -98 l0 -280 -60 0 -60 0 0 280 0 280 60 0 60 0 0 -280z m610
225 l0 -55 -131 0 -130 0 3 -52 3 -53 123 -3 122 -3 0 -54 0 -54 -122 -3 -123
-3 0 -55 0 -55 138 -3 137 -3 0 -54 0 -55 -200 0 -200 0 0 280 0 280 190 0
190 0 0 -55z m-1460 -753 c222 -116 217 -411 -9 -516 -45 -21 -55 -21 -616
-21 -537 0 -573 1 -619 19 -197 76 -241 329 -84 471 84 76 69 74 713 72 l570
-2 45 -23z m613 18 c161 -24 250 -119 250 -270 0 -125 -63 -215 -182 -262 -71
-27 -331 -40 -331 -17 0 8 0 129 -1 269 -1 140 -1 263 0 273 1 15 13 17 99 17
53 0 128 -5 165 -10z m774 -13 c17 -9 41 -29 52 -43 41 -52 17 -171 -38 -189
-28 -8 -27 -21 2 -29 72 -18 111 -130 68 -199 -39 -63 -93 -80 -268 -85 l-153
-4 0 287 0 287 153 -4 c116 -3 159 -8 184 -21z"/>
<path d="M2460 1209 l0 -172 84 5 c73 4 89 8 121 32 42 32 65 79 65 131 0 106
-88 174 -227 175 l-43 0 0 -171z"/>
<path d="M3167 1384 c-4 -4 -7 -34 -7 -66 l0 -58 63 0 c79 0 107 17 107 65 0
22 -6 38 -17 44 -24 12 -137 24 -146 15z"/>
<path d="M3160 1096 l0 -66 80 0 c88 0 120 17 120 63 0 43 -34 62 -121 66
l-79 3 0 -66z"/>
</g>
</svg>
